<svg xmlns="http://www.w3.org/2000/svg" viewBox="52.5 18 380 380" fill="none" width="24" height="24" aria-label="Quni">
  <path fill="#FF6F61" fill-rule="evenodd" d="M 211.16 28.56 C 212.15 28.43 213.21 28.32 214.36 28.24 C 215.51 28.16 216.81 28.11 218.08 28.07 C 219.36 28.03 220.69 28.03 222.01 28.01 C 223.33 28.00 224.67 28.00 226.00 28.00 C 227.33 28.00 228.67 28.00 230.00 28.00 C 231.33 28.00 232.67 28.00 234.00 28.00 C 235.33 28.00 236.67 28.00 238.00 28.00 C 239.33 28.00 240.67 28.00 241.99 28.01 C 243.31 28.03 244.63 28.03 245.92 28.08 C 247.21 28.12 248.49 28.18 249.71 28.29 C 250.94 28.39 252.12 28.54 253.27 28.73 C 254.42 28.91 255.51 29.15 256.60 29.40 C 257.70 29.64 258.75 29.92 259.82 30.18 C 260.88 30.45 261.94 30.73 262.99 31.01 C 264.05 31.28 265.11 31.56 266.15 31.85 C 267.19 32.15 268.22 32.45 269.23 32.77 C 270.25 33.08 271.25 33.42 272.23 33.77 C 273.22 34.11 274.20 34.47 275.17 34.83 C 276.14 35.20 277.10 35.56 278.06 35.94 C 279.01 36.32 279.96 36.71 280.89 37.11 C 281.83 37.50 282.76 37.91 283.68 38.32 C 284.60 38.73 285.52 39.15 286.43 39.57 C 287.33 40.00 288.24 40.42 289.13 40.87 C 290.01 41.32 290.88 41.79 291.73 42.27 C 292.58 42.75 293.41 43.26 294.22 43.78 C 295.03 44.30 295.82 44.84 296.61 45.39 C 297.40 45.93 298.18 46.49 298.96 47.04 C 299.74 47.59 300.53 48.14 301.31 48.69 C 302.09 49.24 302.88 49.79 303.66 50.34 C 304.44 50.89 305.21 51.45 305.98 52.02 C 306.75 52.58 307.51 53.15 308.26 53.74 C 309.01 54.32 309.76 54.90 310.49 55.51 C 311.22 56.12 311.93 56.73 312.62 57.38 C 313.31 58.02 313.98 58.69 314.63 59.37 C 315.28 60.05 315.90 60.76 316.53 61.47 C 317.16 62.18 317.77 62.90 318.39 63.61 C 319.01 64.32 319.64 65.03 320.26 65.74 C 320.89 66.45 321.52 67.15 322.13 67.87 C 322.74 68.59 323.34 69.32 323.93 70.07 C 324.52 70.82 325.08 71.58 325.65 72.35 C 326.21 73.12 326.76 73.91 327.31 74.69 C 327.86 75.47 328.41 76.25 328.97 77.03 C 329.54 77.80 330.11 78.56 330.68 79.32 C 331.24 80.09 331.82 80.84 332.38 81.62 C 332.93 82.40 333.48 83.18 334.00 84.00 C 334.53 84.81 335.02 85.64 335.50 86.50 C 335.98 87.35 336.44 88.23 336.88 89.12 C 337.33 90.00 337.77 90.90 338.20 91.80 C 338.63 92.71 339.05 93.62 339.46 94.54 C 339.87 95.46 340.28 96.39 340.68 97.32 C 341.09 98.25 341.49 99.17 341.89 100.11 C 342.28 101.05 342.68 101.99 343.05 102.95 C 343.42 103.92 343.76 104.90 344.11 105.89 C 344.45 106.88 344.77 107.90 345.10 108.90 C 345.44 109.90 345.77 110.89 346.11 111.89 C 346.45 112.89 346.80 113.87 347.12 114.88 C 347.45 115.89 347.76 116.90 348.06 117.94 C 348.35 118.98 348.62 120.05 348.88 121.12 C 349.15 122.19 349.39 123.27 349.64 124.36 C 349.89 125.44 350.15 126.52 350.39 127.61 C 350.62 128.71 350.87 129.80 351.08 130.92 C 351.29 132.04 351.48 133.18 351.67 134.33 C 351.85 135.49 352.00 136.67 352.17 137.83 C 352.33 139.00 352.50 140.17 352.67 141.33 C 352.84 142.49 353.03 143.63 353.21 144.79 C 353.39 145.95 353.57 147.10 353.73 148.27 C 353.89 149.44 354.05 150.62 354.19 151.81 C 354.33 153.00 354.47 154.20 354.57 155.43 C 354.68 156.65 354.77 157.90 354.83 159.17 C 354.89 160.44 354.93 161.74 354.95 163.05 C 354.98 164.35 354.99 165.68 354.99 167.01 C 354.99 168.33 354.99 169.66 354.98 170.98 C 354.96 172.30 354.95 173.62 354.90 174.90 C 354.85 176.18 354.79 177.45 354.68 178.68 C 354.58 179.91 354.44 181.11 354.28 182.28 C 354.12 183.45 353.92 184.59 353.72 185.72 C 353.52 186.86 353.30 187.97 353.09 189.09 C 352.88 190.22 352.67 191.34 352.45 192.45 C 352.24 193.57 352.03 194.70 351.80 195.80 C 351.58 196.91 351.34 198.01 351.10 199.10 C 350.85 200.18 350.59 201.25 350.32 202.32 C 350.06 203.39 349.79 204.45 349.51 205.51 C 349.24 206.57 348.97 207.64 348.68 208.68 C 348.38 209.72 348.08 210.75 347.75 211.75 C 347.42 212.76 347.06 213.72 346.69 214.69 C 346.33 215.66 345.94 216.61 345.57 217.57 C 345.19 218.53 344.83 219.50 344.46 220.46 C 344.09 221.43 343.73 222.40 343.35 223.35 C 342.98 224.31 342.59 225.25 342.19 226.19 C 341.79 227.13 341.39 228.06 340.98 228.98 C 340.57 229.91 340.17 230.84 339.74 231.74 C 339.32 232.65 338.89 233.55 338.44 234.44 C 337.98 235.32 337.51 236.18 337.03 237.03 C 336.55 237.89 336.06 238.72 335.57 239.57 C 335.08 240.41 334.58 241.25 334.09 242.09 C 333.59 242.92 333.10 243.76 332.59 244.59 C 332.08 245.41 331.56 246.23 331.03 247.03 C 330.49 247.83 329.94 248.61 329.38 249.38 C 328.81 250.15 328.23 250.90 327.65 251.65 C 327.06 252.40 326.47 253.14 325.87 253.87 C 325.28 254.61 324.67 255.34 324.06 256.06 C 323.44 256.77 322.81 257.48 322.18 258.18 C 321.54 258.87 320.89 259.55 320.23 260.23 C 319.58 260.91 318.91 261.58 318.25 262.25 C 317.58 262.92 316.92 263.58 316.25 264.25 C 315.58 264.92 314.92 265.58 314.25 266.25 C 313.58 266.91 312.91 267.58 312.23 268.23 C 311.55 268.89 310.87 269.54 310.18 270.18 C 309.48 270.81 308.77 271.44 308.06 272.06 C 307.34 272.67 306.61 273.28 305.87 273.87 C 305.14 274.47 304.40 275.06 303.65 275.65 C 302.90 276.23 302.15 276.81 301.38 277.38 C 300.62 277.95 299.84 278.51 299.06 279.06 C 298.28 279.61 297.48 280.14 296.68 280.68 C 295.88 281.21 295.07 281.73 294.26 282.26 C 293.45 282.78 292.64 283.31 291.83 283.83 C 291.03 284.36 290.23 284.89 289.42 285.42 C 288.62 285.95 287.83 286.50 287.01 287.01 C 286.20 287.53 285.38 288.04 284.53 288.53 C 283.68 289.01 282.81 289.47 281.92 289.92 C 281.02 290.36 280.10 290.77 279.18 291.18 C 278.25 291.58 277.30 291.96 276.35 292.35 C 275.40 292.74 274.45 293.11 273.50 293.50 C 272.55 293.88 271.60 294.27 270.66 294.66 C 269.73 295.06 268.79 295.46 267.86 295.86 C 266.92 296.26 266.00 296.66 265.07 297.07 C 264.13 297.47 263.20 297.87 262.26 298.26 C 261.31 298.65 260.36 299.02 259.39 299.39 C 258.43 299.76 257.44 300.10 256.46 300.46 C 255.48 300.82 254.50 301.17 253.53 301.53 C 252.56 301.89 251.60 302.27 250.64 302.64 C 249.68 303.01 248.71 303.38 247.74 303.74 C 246.78 304.11 245.79 304.46 244.82 304.82 C 243.85 305.19 242.88 305.55 241.93 305.93 C 240.98 306.31 240.04 306.71 239.10 307.10 C 238.17 307.50 237.24 307.90 236.30 308.30 C 235.36 308.69 234.41 309.08 233.46 309.46 C 232.51 309.84 231.56 310.22 230.59 310.59 C 229.63 310.96 228.65 311.32 227.68 311.68 C 226.70 312.03 225.71 312.37 224.72 312.72 C 223.74 313.07 222.76 313.43 221.78 313.78 C 220.80 314.13 219.82 314.49 218.84 314.84 C 217.85 315.18 216.84 315.51 215.86 315.86 C 214.87 316.20 213.87 316.54 212.92 316.92 C 211.96 317.29 211.03 317.70 210.14 318.14 C 209.25 318.57 208.39 319.05 207.60 319.53 C 206.80 320.01 205.99 320.53 205.40 321.01 C 204.80 321.50 204.23 322.01 204.02 322.44 C 203.80 322.88 203.80 323.31 204.10 323.62 C 204.41 323.92 205.07 324.15 205.85 324.28 C 206.63 324.41 207.71 324.40 208.78 324.39 C 209.84 324.38 211.07 324.28 212.25 324.21 C 213.43 324.14 214.67 324.05 215.86 323.99 C 217.06 323.93 218.25 323.87 219.41 323.84 C 220.58 323.81 221.70 323.79 222.86 323.80 C 224.01 323.81 225.16 323.85 226.35 323.90 C 227.53 323.95 228.74 324.02 229.95 324.11 C 231.17 324.19 232.40 324.29 233.61 324.40 C 234.82 324.51 236.03 324.64 237.23 324.77 C 238.42 324.91 239.62 325.05 240.79 325.21 C 241.96 325.38 243.11 325.55 244.25 325.75 C 245.39 325.95 246.50 326.17 247.60 326.40 C 248.71 326.63 249.80 326.87 250.87 327.13 C 251.95 327.38 253.02 327.65 254.06 327.94 C 255.10 328.23 256.12 328.55 257.14 328.86 C 258.15 329.18 259.14 329.52 260.16 329.84 C 261.18 330.15 262.21 330.46 263.26 330.74 C 264.31 331.02 265.39 331.27 266.46 331.54 C 267.53 331.80 268.62 332.04 269.67 332.33 C 270.72 332.61 271.75 332.92 272.76 333.24 C 273.77 333.57 274.73 333.93 275.72 334.28 C 276.71 334.63 277.68 334.98 278.68 335.32 C 279.69 335.65 280.71 335.96 281.73 336.27 C 282.75 336.58 283.79 336.88 284.81 337.19 C 285.84 337.50 286.86 337.81 287.89 338.11 C 288.91 338.42 289.94 338.73 290.98 339.02 C 292.02 339.32 293.07 339.60 294.13 339.87 C 295.18 340.15 296.25 340.42 297.33 340.67 C 298.40 340.93 299.48 341.18 300.59 341.41 C 301.69 341.64 302.81 341.86 303.95 342.04 C 305.10 342.23 306.26 342.39 307.45 342.51 C 308.64 342.62 309.87 342.70 311.08 342.72 C 312.30 342.75 313.54 342.72 314.75 342.65 C 315.95 342.58 317.15 342.46 318.33 342.31 C 319.50 342.16 320.64 341.97 321.77 341.77 C 322.89 341.56 324.00 341.33 325.07 341.07 C 326.15 340.81 327.20 340.53 328.22 340.22 C 329.24 339.91 330.24 339.57 331.20 339.20 C 332.16 338.83 333.09 338.43 334.00 338.00 C 334.91 337.57 335.79 337.12 336.64 336.64 C 337.49 336.15 338.32 335.65 339.10 335.10 C 339.89 334.55 340.64 333.97 341.35 333.35 C 342.05 332.72 342.71 332.05 343.36 331.36 C 344.00 330.66 344.60 329.94 345.20 329.20 C 345.79 328.45 346.35 327.68 346.91 326.91 C 347.47 326.14 347.99 325.33 348.56 324.56 C 349.12 323.79 349.67 323.00 350.30 322.30 C 350.93 321.60 351.60 320.93 352.36 320.37 C 353.12 319.80 353.97 319.31 354.88 318.92 C 355.79 318.53 356.80 318.23 357.83 318.02 C 358.87 317.81 359.98 317.69 361.09 317.64 C 362.20 317.60 363.36 317.64 364.49 317.72 C 365.62 317.81 366.80 317.95 367.87 318.17 C 368.94 318.40 370.02 318.66 370.92 319.08 C 371.82 319.50 372.65 320.02 373.28 320.69 C 373.92 321.36 374.40 322.20 374.75 323.11 C 375.09 324.01 375.25 325.08 375.33 326.13 C 375.41 327.19 375.33 328.33 375.22 329.42 C 375.11 330.51 374.88 331.61 374.66 332.69 C 374.44 333.77 374.15 334.83 373.88 335.89 C 373.62 336.95 373.33 338.00 373.05 339.05 C 372.77 340.11 372.50 341.17 372.21 342.21 C 371.92 343.25 371.62 344.29 371.29 345.29 C 370.96 346.29 370.60 347.27 370.23 348.23 C 369.85 349.18 369.45 350.12 369.04 351.04 C 368.63 351.97 368.22 352.88 367.78 353.78 C 367.35 354.68 366.91 355.57 366.44 356.44 C 365.98 357.31 365.49 358.16 364.99 358.99 C 364.48 359.81 363.95 360.62 363.41 361.41 C 362.86 362.19 362.29 362.95 361.69 363.69 C 361.10 364.43 360.48 365.15 359.85 365.85 C 359.21 366.54 358.54 367.21 357.87 367.87 C 357.20 368.54 356.51 369.18 355.83 369.83 C 355.14 370.47 354.45 371.11 353.75 371.75 C 353.06 372.39 352.37 373.03 351.65 373.65 C 350.94 374.28 350.22 374.89 349.48 375.48 C 348.74 376.07 347.98 376.65 347.20 377.20 C 346.42 377.75 345.62 378.29 344.80 378.80 C 343.97 379.31 343.12 379.79 342.26 380.26 C 341.40 380.73 340.51 381.18 339.62 381.62 C 338.72 382.05 337.80 382.47 336.87 382.87 C 335.94 383.27 334.99 383.66 334.02 384.02 C 333.05 384.39 332.07 384.73 331.06 385.06 C 330.05 385.38 329.02 385.69 327.97 385.97 C 326.91 386.24 325.83 386.50 324.72 386.72 C 323.62 386.94 322.48 387.14 321.32 387.29 C 320.16 387.44 318.96 387.57 317.76 387.63 C 316.57 387.69 315.34 387.71 314.13 387.68 C 312.92 387.65 311.71 387.55 310.52 387.44 C 309.33 387.33 308.15 387.17 306.99 387.00 C 305.84 386.83 304.69 386.64 303.57 386.43 C 302.45 386.21 301.35 385.98 300.27 385.73 C 299.19 385.48 298.13 385.20 297.09 384.91 C 296.05 384.62 295.03 384.30 294.03 383.97 C 293.03 383.63 292.06 383.27 291.10 382.90 C 290.13 382.54 289.18 382.15 288.23 381.77 C 287.29 381.38 286.34 380.99 285.41 380.59 C 284.49 380.18 283.57 379.76 282.68 379.32 C 281.80 378.87 280.94 378.39 280.10 377.90 C 279.26 377.41 278.45 376.88 277.64 376.36 C 276.83 375.84 276.02 375.31 275.22 374.78 C 274.43 374.24 273.63 373.70 272.85 373.15 C 272.07 372.60 271.30 372.03 270.55 371.45 C 269.80 370.87 269.07 370.26 268.36 369.64 C 267.64 369.03 266.95 368.39 266.25 367.75 C 265.55 367.12 264.86 366.48 264.16 365.84 C 263.46 365.21 262.75 364.58 262.05 363.95 C 261.34 363.33 260.63 362.70 259.93 362.07 C 259.22 361.45 258.51 360.82 257.80 360.20 C 257.08 359.59 256.36 358.97 255.63 358.37 C 254.91 357.76 254.17 357.16 253.43 356.57 C 252.69 355.97 251.95 355.38 251.20 354.80 C 250.44 354.22 249.68 353.65 248.92 353.08 C 248.15 352.52 247.37 351.97 246.59 351.41 C 245.81 350.86 245.02 350.31 244.24 349.76 C 243.46 349.21 242.69 348.65 241.90 348.10 C 241.12 347.55 240.35 346.99 239.53 346.47 C 238.72 345.94 237.90 345.44 237.03 344.97 C 236.16 344.50 235.26 344.07 234.34 343.66 C 233.42 343.25 232.46 342.87 231.49 342.51 C 230.52 342.14 229.53 341.80 228.52 341.48 C 227.51 341.15 226.48 340.85 225.43 340.57 C 224.38 340.29 223.31 340.02 222.23 339.78 C 221.15 339.54 220.06 339.30 218.95 339.11 C 217.85 338.92 216.73 338.75 215.59 338.66 C 214.46 338.57 213.31 338.53 212.15 338.55 C 211.00 338.56 209.82 338.65 208.66 338.76 C 207.50 338.87 206.32 339.02 205.18 339.19 C 204.03 339.36 202.89 339.56 201.79 339.79 C 200.69 340.03 199.62 340.29 198.59 340.59 C 197.55 340.89 196.56 341.22 195.59 341.59 C 194.62 341.95 193.68 342.35 192.77 342.77 C 191.86 343.19 190.97 343.64 190.11 344.11 C 189.25 344.58 188.41 345.08 187.59 345.59 C 186.78 346.11 185.99 346.65 185.21 347.21 C 184.44 347.77 183.69 348.35 182.94 348.94 C 182.19 349.52 181.46 350.13 180.70 350.70 C 179.95 351.28 179.21 351.88 178.41 352.40 C 177.61 352.93 176.80 353.45 175.92 353.86 C 175.04 354.27 174.11 354.62 173.11 354.86 C 172.12 355.10 171.06 355.23 169.96 355.30 C 168.86 355.38 167.70 355.33 166.51 355.30 C 165.32 355.27 164.08 355.19 162.82 355.15 C 161.56 355.11 160.26 355.07 158.96 355.05 C 157.65 355.03 156.32 355.02 155.01 355.03 C 153.70 355.04 152.38 355.05 151.09 355.09 C 149.80 355.13 148.53 355.19 147.28 355.26 C 146.03 355.32 144.80 355.43 143.60 355.47 C 142.40 355.51 141.20 355.57 140.08 355.50 C 138.96 355.42 137.83 355.30 136.87 355.02 C 135.91 354.74 135.00 354.34 134.31 353.81 C 133.63 353.29 133.09 352.60 132.79 351.88 C 132.49 351.16 132.41 350.30 132.50 349.50 C 132.60 348.71 132.95 347.87 133.36 347.12 C 133.78 346.36 134.39 345.65 135.00 344.96 C 135.61 344.28 136.33 343.66 137.02 343.02 C 137.71 342.38 138.44 341.77 139.15 341.15 C 139.85 340.52 140.56 339.89 141.27 339.27 C 141.97 338.64 142.68 338.01 143.39 337.39 C 144.11 336.78 144.83 336.16 145.56 335.56 C 146.29 334.95 147.01 334.35 147.76 333.76 C 148.50 333.17 149.25 332.58 150.02 332.02 C 150.79 331.46 151.58 330.91 152.38 330.38 C 153.18 329.85 154.01 329.34 154.83 328.83 C 155.65 328.32 156.49 327.82 157.32 327.32 C 158.15 326.82 158.99 326.33 159.83 325.83 C 160.68 325.34 161.52 324.85 162.37 324.37 C 163.22 323.89 164.07 323.41 164.93 322.93 C 165.79 322.46 166.66 321.99 167.53 321.53 C 168.40 321.07 169.29 320.62 170.17 320.17 C 171.06 319.72 171.95 319.28 172.84 318.84 C 173.73 318.40 174.62 317.96 175.52 317.52 C 176.42 317.09 177.33 316.66 178.25 316.25 C 179.16 315.83 180.09 315.42 181.01 315.01 C 181.93 314.59 182.84 314.18 183.76 313.76 C 184.67 313.34 185.58 312.92 186.49 312.49 C 187.40 312.07 188.31 311.65 189.22 311.22 C 190.13 310.80 191.04 310.37 191.96 309.96 C 192.88 309.54 193.80 309.13 194.74 308.74 C 195.68 308.35 196.64 307.97 197.61 307.61 C 198.57 307.24 199.56 306.89 200.54 306.54 C 201.52 306.19 202.52 305.85 203.51 305.52 C 204.51 305.18 205.54 304.87 206.51 304.55 C 207.48 304.22 208.51 303.92 209.35 303.56 C 210.19 303.20 211.02 302.83 211.53 302.39 C 212.05 301.95 212.40 301.44 212.45 300.93 C 212.50 300.42 212.25 299.84 211.83 299.34 C 211.41 298.83 210.70 298.32 209.92 297.89 C 209.15 297.47 208.17 297.11 207.19 296.78 C 206.21 296.46 205.12 296.21 204.06 295.94 C 202.99 295.68 201.89 295.44 200.82 295.18 C 199.76 294.91 198.70 294.63 197.66 294.34 C 196.61 294.05 195.58 293.75 194.56 293.44 C 193.54 293.13 192.52 292.82 191.51 292.49 C 190.51 292.15 189.52 291.81 188.55 291.45 C 187.57 291.09 186.62 290.72 185.66 290.34 C 184.71 289.95 183.77 289.56 182.83 289.17 C 181.90 288.77 180.97 288.36 180.06 287.94 C 179.15 287.52 178.25 287.08 177.36 286.64 C 176.47 286.19 175.60 285.74 174.72 285.28 C 173.85 284.82 172.98 284.36 172.12 283.88 C 171.27 283.40 170.42 282.91 169.60 282.40 C 168.78 281.89 167.98 281.35 167.19 280.81 C 166.39 280.27 165.62 279.71 164.83 279.17 C 164.05 278.62 163.27 278.07 162.48 277.52 C 161.69 276.98 160.89 276.44 160.10 275.90 C 159.31 275.35 158.52 274.81 157.74 274.26 C 156.96 273.70 156.19 273.14 155.44 272.56 C 154.69 271.98 153.95 271.38 153.23 270.77 C 152.51 270.16 151.80 269.53 151.11 268.89 C 150.41 268.26 149.72 267.61 149.04 266.96 C 148.36 266.30 147.69 265.64 147.03 264.97 C 146.36 264.30 145.71 263.63 145.06 262.94 C 144.41 262.26 143.77 261.56 143.13 260.87 C 142.49 260.18 141.85 259.49 141.21 258.79 C 140.58 258.09 139.93 257.40 139.32 256.68 C 138.70 255.96 138.10 255.24 137.52 254.48 C 136.95 253.72 136.41 252.92 135.88 252.12 C 135.35 251.31 134.86 250.48 134.34 249.66 C 133.82 248.85 133.30 248.03 132.78 247.22 C 132.25 246.42 131.70 245.63 131.17 244.83 C 130.64 244.02 130.11 243.23 129.60 242.40 C 129.10 241.57 128.61 240.72 128.14 239.86 C 127.66 239.00 127.21 238.12 126.76 237.24 C 126.30 236.37 125.85 235.48 125.40 234.60 C 124.95 233.72 124.49 232.85 124.04 231.96 C 123.59 231.07 123.14 230.19 122.72 229.28 C 122.29 228.38 121.87 227.46 121.47 226.53 C 121.07 225.59 120.70 224.63 120.33 223.67 C 119.96 222.71 119.60 221.73 119.24 220.76 C 118.88 219.79 118.51 218.82 118.17 217.83 C 117.82 216.85 117.46 215.87 117.15 214.85 C 116.83 213.84 116.54 212.79 116.26 211.74 C 115.98 210.69 115.74 209.60 115.47 208.53 C 115.20 207.47 114.93 206.40 114.65 205.35 C 114.37 204.29 114.07 203.26 113.79 202.21 C 113.52 201.15 113.24 200.09 113.00 199.00 C 112.77 197.90 112.57 196.77 112.39 195.61 C 112.21 194.46 112.07 193.26 111.94 192.06 C 111.80 190.87 111.68 189.65 111.56 188.44 C 111.44 187.22 111.33 186.00 111.23 184.77 C 111.12 183.55 111.03 182.31 110.93 181.07 C 110.83 179.84 110.72 178.61 110.63 177.37 C 110.53 176.14 110.41 174.92 110.33 173.67 C 110.25 172.42 110.17 171.16 110.12 169.88 C 110.07 168.59 110.05 167.28 110.03 165.97 C 110.01 164.66 110.01 163.32 110.01 162.00 C 110.00 160.67 110.00 159.33 110.01 158.00 C 110.01 156.68 110.01 155.34 110.03 154.03 C 110.05 152.72 110.07 151.41 110.13 150.13 C 110.18 148.84 110.25 147.58 110.34 146.34 C 110.42 145.09 110.54 143.87 110.65 142.65 C 110.76 141.43 110.88 140.22 111.01 139.01 C 111.13 137.80 111.25 136.58 111.39 135.39 C 111.53 134.20 111.67 133.00 111.84 131.84 C 112.01 130.68 112.20 129.53 112.42 128.42 C 112.65 127.31 112.90 126.24 113.18 125.18 C 113.46 124.13 113.78 123.11 114.09 122.09 C 114.39 121.06 114.72 120.05 115.02 119.02 C 115.33 118.00 115.63 116.96 115.94 115.94 C 116.25 114.92 116.55 113.89 116.88 112.88 C 117.21 111.88 117.56 110.89 117.91 109.91 C 118.27 108.93 118.64 107.97 119.02 107.02 C 119.40 106.06 119.78 105.12 120.17 104.17 C 120.56 103.23 120.96 102.29 121.36 101.36 C 121.76 100.42 122.16 99.49 122.57 98.57 C 122.98 97.64 123.39 96.72 123.82 95.82 C 124.25 94.91 124.69 94.02 125.14 93.14 C 125.59 92.25 126.05 91.39 126.52 90.52 C 126.99 89.65 127.46 88.79 127.94 87.94 C 128.41 87.08 128.90 86.23 129.39 85.39 C 129.88 84.55 130.38 83.71 130.88 82.88 C 131.38 82.05 131.88 81.22 132.40 80.40 C 132.91 79.58 133.43 78.76 133.97 77.97 C 134.51 77.17 135.06 76.39 135.63 75.63 C 136.19 74.86 136.77 74.11 137.37 73.37 C 137.96 72.63 138.56 71.90 139.18 71.18 C 139.79 70.46 140.42 69.76 141.05 69.05 C 141.68 68.35 142.32 67.66 142.96 66.96 C 143.60 66.27 144.24 65.57 144.88 64.88 C 145.52 64.19 146.16 63.49 146.81 62.81 C 147.46 62.13 148.11 61.45 148.78 60.78 C 149.45 60.12 150.13 59.46 150.81 58.81 C 151.50 58.17 152.20 57.53 152.90 56.90 C 153.60 56.27 154.31 55.64 155.01 55.01 C 155.72 54.39 156.43 53.76 157.15 53.15 C 157.87 52.53 158.58 51.92 159.33 51.33 C 160.08 50.74 160.84 50.17 161.62 49.62 C 162.41 49.08 163.23 48.56 164.05 48.05 C 164.87 47.54 165.71 47.05 166.55 46.55 C 167.39 46.06 168.24 45.57 169.08 45.08 C 169.92 44.59 170.76 44.10 171.60 43.60 C 172.44 43.10 173.26 42.60 174.09 42.09 C 174.93 41.59 175.75 41.08 176.60 40.60 C 177.44 40.11 178.29 39.62 179.16 39.16 C 180.03 38.69 180.90 38.24 181.80 37.80 C 182.70 37.36 183.61 36.94 184.54 36.54 C 185.48 36.14 186.44 35.78 187.42 35.42 C 188.39 35.06 189.39 34.72 190.38 34.38 C 191.37 34.04 192.36 33.70 193.36 33.36 C 194.36 33.02 195.35 32.68 196.36 32.36 C 197.37 32.04 198.40 31.73 199.43 31.43 C 200.46 31.13 201.51 30.84 202.54 30.55 C 203.57 30.27 204.63 29.98 205.61 29.73 C 206.59 29.47 207.52 29.24 208.44 29.04 C 209.37 28.85 210.18 28.69 211.16 28.56 Z M 225.27 47.63 C 224.13 47.68 222.98 47.79 221.85 47.94 C 220.72 48.09 219.60 48.30 218.52 48.53 C 217.44 48.77 216.38 49.05 215.37 49.37 C 214.35 49.68 213.37 50.04 212.42 50.42 C 211.46 50.79 210.52 51.19 209.61 51.61 C 208.70 52.03 207.80 52.47 206.94 52.94 C 206.07 53.41 205.24 53.90 204.43 54.43 C 203.62 54.95 202.84 55.51 202.09 56.09 C 201.33 56.66 200.60 57.27 199.89 57.89 C 199.17 58.51 198.48 59.15 197.80 59.80 C 197.12 60.45 196.45 61.12 195.80 61.80 C 195.15 62.48 194.51 63.17 193.89 63.89 C 193.27 64.60 192.66 65.33 192.09 66.09 C 191.51 66.84 190.95 67.61 190.41 68.41 C 189.88 69.21 189.37 70.04 188.88 70.88 C 188.39 71.72 187.92 72.59 187.46 73.46 C 187.00 74.33 186.55 75.21 186.11 76.11 C 185.66 77.00 185.23 77.90 184.81 78.81 C 184.38 79.72 183.97 80.64 183.57 81.57 C 183.17 82.50 182.77 83.44 182.39 84.39 C 182.01 85.34 181.63 86.30 181.28 87.28 C 180.92 88.26 180.59 89.26 180.26 90.26 C 179.93 91.26 179.61 92.27 179.29 93.29 C 178.97 94.30 178.64 95.31 178.34 96.34 C 178.03 97.37 177.73 98.40 177.47 99.47 C 177.21 100.54 176.97 101.63 176.77 102.77 C 176.56 103.90 176.41 105.07 176.25 106.25 C 176.10 107.43 175.99 108.65 175.84 109.84 C 175.69 111.02 175.54 112.21 175.36 113.36 C 175.18 114.51 174.96 115.63 174.75 116.75 C 174.54 117.87 174.29 118.96 174.09 120.08 C 173.88 121.20 173.67 122.33 173.51 123.47 C 173.34 124.60 173.20 125.77 173.08 126.90 C 172.95 128.02 172.86 129.14 172.76 130.22 C 172.66 131.31 172.56 132.33 172.48 133.41 C 172.39 134.48 172.31 135.53 172.24 136.67 C 172.18 137.80 172.13 138.99 172.09 140.22 C 172.05 141.45 172.04 142.75 172.02 144.05 C 172.01 145.35 172.01 146.68 172.00 148.01 C 172.00 149.33 172.00 150.67 172.00 152.00 C 172.01 153.33 172.01 154.66 172.02 155.98 C 172.03 157.30 172.05 158.62 172.09 159.91 C 172.13 161.20 172.19 162.47 172.27 163.73 C 172.34 164.99 172.45 166.22 172.54 167.46 C 172.64 168.70 172.74 169.93 172.84 171.16 C 172.93 172.40 173.01 173.65 173.12 174.88 C 173.23 176.11 173.34 177.33 173.48 178.52 C 173.63 179.71 173.80 180.87 173.98 182.02 C 174.17 183.17 174.38 184.29 174.58 185.42 C 174.78 186.55 174.99 187.68 175.18 188.82 C 175.37 189.96 175.56 191.11 175.73 192.27 C 175.90 193.43 176.05 194.61 176.21 195.79 C 176.37 196.96 176.52 198.15 176.69 199.31 C 176.85 200.48 177.02 201.65 177.21 202.79 C 177.41 203.93 177.62 205.05 177.86 206.14 C 178.10 207.23 178.38 208.29 178.66 209.34 C 178.93 210.40 179.23 211.43 179.52 212.48 C 179.81 213.52 180.10 214.56 180.40 215.60 C 180.69 216.64 180.98 217.69 181.29 218.71 C 181.59 219.74 181.91 220.76 182.23 221.77 C 182.56 222.77 182.90 223.77 183.24 224.76 C 183.59 225.75 183.94 226.73 184.30 227.70 C 184.65 228.68 185.02 229.64 185.39 230.61 C 185.76 231.57 186.14 232.53 186.51 233.49 C 186.88 234.45 187.25 235.42 187.63 236.37 C 188.00 237.33 188.38 238.29 188.78 239.22 C 189.19 240.15 189.61 241.06 190.04 241.96 C 190.48 242.85 190.94 243.73 191.40 244.60 C 191.86 245.47 192.33 246.33 192.82 247.18 C 193.30 248.04 193.79 248.88 194.29 249.71 C 194.80 250.54 195.32 251.35 195.84 252.16 C 196.37 252.96 196.91 253.75 197.45 254.55 C 198.00 255.34 198.54 256.13 199.09 256.91 C 199.63 257.70 200.17 258.49 200.73 259.27 C 201.29 260.05 201.84 260.83 202.42 261.58 C 203.00 262.33 203.59 263.07 204.21 263.79 C 204.83 264.50 205.47 265.19 206.14 265.86 C 206.81 266.52 207.50 267.16 208.22 267.78 C 208.93 268.40 209.68 268.99 210.44 269.56 C 211.20 270.13 211.99 270.68 212.80 271.20 C 213.60 271.73 214.42 272.24 215.27 272.73 C 216.11 273.22 216.97 273.70 217.87 274.13 C 218.76 274.57 219.69 274.98 220.65 275.35 C 221.61 275.72 222.61 276.05 223.63 276.37 C 224.65 276.68 225.70 276.97 226.77 277.23 C 227.83 277.50 228.92 277.75 230.04 277.95 C 231.16 278.16 232.31 278.34 233.49 278.47 C 234.66 278.60 235.88 278.68 237.08 278.71 C 238.28 278.73 239.52 278.69 240.70 278.61 C 241.89 278.52 243.06 278.36 244.19 278.17 C 245.31 277.98 246.40 277.73 247.47 277.47 C 248.54 277.21 249.58 276.91 250.60 276.60 C 251.62 276.28 252.61 275.95 253.58 275.58 C 254.55 275.22 255.49 274.82 256.41 274.41 C 257.32 273.99 258.21 273.55 259.08 273.08 C 259.95 272.62 260.80 272.14 261.62 271.62 C 262.44 271.10 263.23 270.56 263.97 269.97 C 264.72 269.39 265.42 268.76 266.10 268.10 C 266.78 267.44 267.41 266.74 268.03 266.03 C 268.65 265.32 269.24 264.57 269.83 263.83 C 270.41 263.08 270.99 262.32 271.56 261.56 C 272.12 260.79 272.69 260.02 273.24 259.24 C 273.79 258.46 274.34 257.67 274.87 256.87 C 275.40 256.07 275.93 255.26 276.43 254.43 C 276.94 253.60 277.43 252.76 277.89 251.89 C 278.34 251.01 278.77 250.11 279.19 249.19 C 279.60 248.27 279.99 247.32 280.38 246.38 C 280.76 245.43 281.15 244.48 281.51 243.51 C 281.87 242.54 282.23 241.56 282.55 240.55 C 282.87 239.53 283.15 238.49 283.43 237.43 C 283.71 236.38 283.95 235.28 284.21 234.21 C 284.47 233.14 284.73 232.06 285.00 231.00 C 285.28 229.94 285.57 228.90 285.85 227.85 C 286.13 226.80 286.42 225.75 286.68 224.68 C 286.94 223.61 287.19 222.52 287.41 221.41 C 287.63 220.30 287.83 219.16 288.02 218.02 C 288.21 216.88 288.38 215.72 288.56 214.56 C 288.73 213.40 288.89 212.23 289.06 211.06 C 289.23 209.90 289.40 208.73 289.56 207.56 C 289.72 206.39 289.89 205.22 290.04 204.04 C 290.19 202.86 290.35 201.68 290.47 200.47 C 290.59 199.26 290.70 198.03 290.77 196.77 C 290.85 195.52 290.90 194.23 290.93 192.93 C 290.97 191.64 290.98 190.31 290.99 188.99 C 291.00 187.66 291.00 186.33 291.00 185.00 C 291.00 183.67 291.00 182.33 291.00 181.00 C 291.00 179.67 291.00 178.33 291.00 177.00 C 291.00 175.67 291.00 174.33 291.00 173.00 C 291.00 171.67 291.00 170.34 290.99 169.01 C 290.98 167.69 290.97 166.37 290.93 165.07 C 290.90 163.77 290.85 162.48 290.79 161.21 C 290.72 159.95 290.62 158.71 290.52 157.48 C 290.43 156.24 290.31 155.02 290.20 153.80 C 290.09 152.57 289.99 151.35 289.87 150.13 C 289.76 148.91 289.64 147.70 289.51 146.49 C 289.38 145.29 289.24 144.09 289.10 142.90 C 288.96 141.71 288.81 140.52 288.66 139.34 C 288.51 138.15 288.36 136.97 288.20 135.80 C 288.04 134.63 287.88 133.45 287.69 132.31 C 287.51 131.16 287.30 130.03 287.08 128.92 C 286.86 127.81 286.61 126.73 286.35 125.65 C 286.10 124.56 285.83 123.51 285.57 122.43 C 285.31 121.36 285.05 120.29 284.80 119.20 C 284.56 118.11 284.33 117.00 284.10 115.90 C 283.87 114.80 283.65 113.68 283.40 112.60 C 283.15 111.51 282.89 110.44 282.60 109.40 C 282.31 108.35 281.99 107.34 281.67 106.33 C 281.35 105.32 281.01 104.33 280.67 103.33 C 280.34 102.33 280.01 101.32 279.67 100.33 C 279.34 99.33 279.01 98.32 278.66 97.34 C 278.31 96.35 277.96 95.38 277.59 94.41 C 277.22 93.44 276.84 92.49 276.46 91.54 C 276.07 90.59 275.68 89.65 275.28 88.72 C 274.87 87.80 274.46 86.88 274.02 85.98 C 273.58 85.08 273.13 84.20 272.66 83.34 C 272.20 82.47 271.71 81.62 271.23 80.77 C 270.74 79.92 270.24 79.09 269.75 78.25 C 269.25 77.41 268.76 76.57 268.26 75.74 C 267.76 74.91 267.27 74.07 266.74 73.26 C 266.22 72.44 265.69 71.65 265.13 70.87 C 264.57 70.09 264.00 69.34 263.41 68.59 C 262.82 67.85 262.21 67.12 261.59 66.41 C 260.97 65.69 260.34 64.99 259.70 64.30 C 259.05 63.61 258.40 62.94 257.73 62.27 C 257.07 61.60 256.40 60.93 255.72 60.28 C 255.04 59.63 254.35 58.98 253.64 58.36 C 252.93 57.74 252.21 57.12 251.45 56.55 C 250.70 55.97 249.92 55.41 249.10 54.90 C 248.28 54.39 247.42 53.91 246.54 53.46 C 245.66 53.01 244.73 52.61 243.80 52.20 C 242.88 51.79 241.94 51.40 241.00 51.00 C 240.06 50.61 239.13 50.20 238.17 49.84 C 237.20 49.47 236.22 49.11 235.20 48.81 C 234.18 48.52 233.11 48.26 232.03 48.07 C 230.94 47.87 229.81 47.73 228.69 47.66 C 227.56 47.59 226.41 47.58 225.27 47.63 Z "></path>
</svg>