<svg xmlns="http://www.w3.org/2000/svg" viewBox="0 0 24 24" role="img" aria-hidden="true">
  <title>DocuSeal</title>
  <!-- Stylized document + seal mark (not an official DocuSeal asset) -->
  <path
    fill="#6366F1"
    d="M14 2H6a2 2 0 0 0-2 2v16a2 2 0 0 0 2 2h12a2 2 0 0 0 2-2V8l-6-6zm0 1.5L18.5 9H15a1 1 0 0 1-1-1V3.5zM8 12h8v1.5H8V12zm0 3h8v1.5H8V15zm0 3h5v1.5H8V18z"
  />
  <circle cx="17.5" cy="17.5" r="3.5" fill="#4F46E5" opacity="0.95" />
  <path
    fill="#fff"
    d="M16.2 17.5l1.1 1.1 2.1-2.1.8.8-2.9 2.9-1.9-1.9.8-.8z"
  />
</svg>
