<svg xmlns="http://www.w3.org/2000/svg" viewBox="0 0 60 25" role="img" aria-label="Stripe">
  <path
    fill="#635BFF"
    fill-rule="evenodd"
    d="M59.64 14.28h-8.06c0 4.26-3.73 7.35-9.09 7.35-5.78 0-9.48-3.64-9.48-9.31 0-5.52 3.56-9.52 9.27-9.52 4.93 0 8.18 2.69 8.84 6.9h-4.63c-.51-2.46-2.39-3.88-4.62-3.88-3.1 0-5.03 2.29-5.03 6.02 0 3.8 1.96 6.08 5.08 6.08 2.87 0 4.52-1.68 4.73-3.73h-4.28V14.28h8.06zm-18.5-7.75c-5.78 0-9.48 3.56-9.48 9.31 0 5.74 3.7 9.31 9.48 9.31 5.78 0 9.48-3.57 9.48-9.31 0-5.75-3.7-9.31-9.48-9.31zm0 15.04c-3.2 0-5.15-2.42-5.15-5.73 0-3.31 1.95-5.73 5.15-5.73 3.19 0 5.14 2.42 5.14 5.73 0 3.31-1.95 5.73-5.14 5.73zM23.54 6.53h-4.22v16.45h4.22V6.53zm-6.28 0H13v16.45h4.26V6.53zM4.77 6.53H.32v16.45h4.45c4.59 0 7.43-2.77 7.43-8.22 0-5.46-2.84-8.23-7.43-8.23zm-.23 12.87H4.5V10.12h-.23c-2.28 0-3.53 1.47-3.53 4.53 0 3.06 1.25 4.75 3.8 4.75z"
  />
</svg>
